<mxfile host="app.diagrams.net" modified="2021-08-10T09:47:57.643Z" agent="5.0 (Windows NT 10.0; Win64; x64) AppleWebKit/537.36 (KHTML, like Gecko) Chrome/92.0.4515.131 Safari/537.36" etag="vqog2daFhG5GU4icGz8b" version="14.9.5" type="github">
  <diagram id="R2lEEEUBdFMjLlhIrx00" name="Page-1">
    <mxGraphModel dx="1073" dy="862" grid="1" gridSize="10" guides="1" tooltips="1" connect="1" arrows="1" fold="1" page="1" pageScale="1" pageWidth="3300" pageHeight="4681" math="0" shadow="0" extFonts="Permanent Marker^https://fonts.googleapis.com/css?family=Permanent+Marker">
      <root>
        <mxCell id="0" />
        <mxCell id="1" parent="0" />
        <mxCell id="QqjxY-3kE29Jugi3b9Gs-132" style="edgeStyle=orthogonalEdgeStyle;rounded=0;orthogonalLoop=1;jettySize=auto;html=1;exitX=0.25;exitY=1;exitDx=0;exitDy=0;entryX=0.4;entryY=0.002;entryDx=0;entryDy=0;entryPerimeter=0;startArrow=ERone;startFill=0;endArrow=ERmany;endFill=0;startSize=8;endSize=8;" edge="1" parent="1" source="luMNdFq9stzjh2Ka0eHw-7" target="QqjxY-3kE29Jugi3b9Gs-40">
          <mxGeometry relative="1" as="geometry" />
        </mxCell>
        <mxCell id="QqjxY-3kE29Jugi3b9Gs-133" style="edgeStyle=orthogonalEdgeStyle;rounded=0;orthogonalLoop=1;jettySize=auto;html=1;exitX=0.5;exitY=1;exitDx=0;exitDy=0;entryX=0.163;entryY=0.003;entryDx=0;entryDy=0;entryPerimeter=0;startArrow=ERone;startFill=0;endArrow=ERmany;endFill=0;startSize=8;endSize=8;" edge="1" parent="1" source="luMNdFq9stzjh2Ka0eHw-7" target="QqjxY-3kE29Jugi3b9Gs-111">
          <mxGeometry relative="1" as="geometry" />
        </mxCell>
        <mxCell id="QqjxY-3kE29Jugi3b9Gs-134" style="edgeStyle=orthogonalEdgeStyle;rounded=0;orthogonalLoop=1;jettySize=auto;html=1;exitX=0.75;exitY=1;exitDx=0;exitDy=0;startArrow=ERone;startFill=0;endArrow=ERzeroToMany;endFill=1;startSize=8;endSize=8;" edge="1" parent="1" source="luMNdFq9stzjh2Ka0eHw-7" target="QqjxY-3kE29Jugi3b9Gs-77">
          <mxGeometry relative="1" as="geometry" />
        </mxCell>
        <mxCell id="luMNdFq9stzjh2Ka0eHw-7" value="stocks" style="shape=table;startSize=30;container=1;collapsible=1;childLayout=tableLayout;fixedRows=1;rowLines=0;fontStyle=1;align=center;resizeLast=1;" parent="1" vertex="1">
          <mxGeometry x="560" y="80" width="240" height="310" as="geometry" />
        </mxCell>
        <mxCell id="luMNdFq9stzjh2Ka0eHw-8" value="" style="shape=partialRectangle;collapsible=0;dropTarget=0;pointerEvents=0;fillColor=none;points=[[0,0.5],[1,0.5]];portConstraint=eastwest;top=0;left=0;right=0;bottom=1;" parent="luMNdFq9stzjh2Ka0eHw-7" vertex="1">
          <mxGeometry y="30" width="240" height="30" as="geometry" />
        </mxCell>
        <mxCell id="luMNdFq9stzjh2Ka0eHw-9" value="PK" style="shape=partialRectangle;overflow=hidden;connectable=0;fillColor=none;top=0;left=0;bottom=0;right=0;fontStyle=1;" parent="luMNdFq9stzjh2Ka0eHw-8" vertex="1">
          <mxGeometry width="30" height="30" as="geometry" />
        </mxCell>
        <mxCell id="luMNdFq9stzjh2Ka0eHw-10" value="id NOT NULL " style="shape=partialRectangle;overflow=hidden;connectable=0;fillColor=none;top=0;left=0;bottom=0;right=0;align=left;spacingLeft=6;fontStyle=5;" parent="luMNdFq9stzjh2Ka0eHw-8" vertex="1">
          <mxGeometry x="30" width="210" height="30" as="geometry" />
        </mxCell>
        <mxCell id="luMNdFq9stzjh2Ka0eHw-11" value="" style="shape=partialRectangle;collapsible=0;dropTarget=0;pointerEvents=0;fillColor=none;points=[[0,0.5],[1,0.5]];portConstraint=eastwest;top=0;left=0;right=0;bottom=0;" parent="luMNdFq9stzjh2Ka0eHw-7" vertex="1">
          <mxGeometry y="60" width="240" height="30" as="geometry" />
        </mxCell>
        <mxCell id="luMNdFq9stzjh2Ka0eHw-12" value="" style="shape=partialRectangle;overflow=hidden;connectable=0;fillColor=none;top=0;left=0;bottom=0;right=0;" parent="luMNdFq9stzjh2Ka0eHw-11" vertex="1">
          <mxGeometry width="30" height="30" as="geometry" />
        </mxCell>
        <mxCell id="luMNdFq9stzjh2Ka0eHw-13" value="name" style="shape=partialRectangle;overflow=hidden;connectable=0;fillColor=none;top=0;left=0;bottom=0;right=0;align=left;spacingLeft=6;" parent="luMNdFq9stzjh2Ka0eHw-11" vertex="1">
          <mxGeometry x="30" width="210" height="30" as="geometry" />
        </mxCell>
        <mxCell id="luMNdFq9stzjh2Ka0eHw-14" value="" style="shape=partialRectangle;collapsible=0;dropTarget=0;pointerEvents=0;fillColor=none;points=[[0,0.5],[1,0.5]];portConstraint=eastwest;top=0;left=0;right=0;bottom=0;" parent="luMNdFq9stzjh2Ka0eHw-7" vertex="1">
          <mxGeometry y="90" width="240" height="30" as="geometry" />
        </mxCell>
        <mxCell id="luMNdFq9stzjh2Ka0eHw-15" value="FK" style="shape=partialRectangle;overflow=hidden;connectable=0;fillColor=none;top=0;left=0;bottom=0;right=0;" parent="luMNdFq9stzjh2Ka0eHw-14" vertex="1">
          <mxGeometry width="30" height="30" as="geometry" />
        </mxCell>
        <mxCell id="luMNdFq9stzjh2Ka0eHw-16" value="market_id" style="shape=partialRectangle;overflow=hidden;connectable=0;fillColor=none;top=0;left=0;bottom=0;right=0;align=left;spacingLeft=6;" parent="luMNdFq9stzjh2Ka0eHw-14" vertex="1">
          <mxGeometry x="30" width="210" height="30" as="geometry" />
        </mxCell>
        <mxCell id="luMNdFq9stzjh2Ka0eHw-17" value="" style="shape=partialRectangle;collapsible=0;dropTarget=0;pointerEvents=0;fillColor=none;points=[[0,0.5],[1,0.5]];portConstraint=eastwest;top=0;left=0;right=0;bottom=0;" parent="luMNdFq9stzjh2Ka0eHw-7" vertex="1">
          <mxGeometry y="120" width="240" height="30" as="geometry" />
        </mxCell>
        <mxCell id="luMNdFq9stzjh2Ka0eHw-18" value="FK" style="shape=partialRectangle;overflow=hidden;connectable=0;fillColor=none;top=0;left=0;bottom=0;right=0;" parent="luMNdFq9stzjh2Ka0eHw-17" vertex="1">
          <mxGeometry width="30" height="30" as="geometry" />
        </mxCell>
        <mxCell id="luMNdFq9stzjh2Ka0eHw-19" value="industry_id" style="shape=partialRectangle;overflow=hidden;connectable=0;fillColor=none;top=0;left=0;bottom=0;right=0;align=left;spacingLeft=6;" parent="luMNdFq9stzjh2Ka0eHw-17" vertex="1">
          <mxGeometry x="30" width="210" height="30" as="geometry" />
        </mxCell>
        <mxCell id="QqjxY-3kE29Jugi3b9Gs-56" value="" style="shape=partialRectangle;collapsible=0;dropTarget=0;pointerEvents=0;fillColor=none;points=[[0,0.5],[1,0.5]];portConstraint=eastwest;top=0;left=0;right=0;bottom=0;" vertex="1" parent="luMNdFq9stzjh2Ka0eHw-7">
          <mxGeometry y="150" width="240" height="30" as="geometry" />
        </mxCell>
        <mxCell id="QqjxY-3kE29Jugi3b9Gs-57" value="FK" style="shape=partialRectangle;overflow=hidden;connectable=0;fillColor=none;top=0;left=0;bottom=0;right=0;" vertex="1" parent="QqjxY-3kE29Jugi3b9Gs-56">
          <mxGeometry width="30" height="30" as="geometry" />
        </mxCell>
        <mxCell id="QqjxY-3kE29Jugi3b9Gs-58" value="price_id" style="shape=partialRectangle;overflow=hidden;connectable=0;fillColor=none;top=0;left=0;bottom=0;right=0;align=left;spacingLeft=6;" vertex="1" parent="QqjxY-3kE29Jugi3b9Gs-56">
          <mxGeometry x="30" width="210" height="30" as="geometry" />
        </mxCell>
        <mxCell id="QqjxY-3kE29Jugi3b9Gs-2" value="" style="shape=partialRectangle;collapsible=0;dropTarget=0;pointerEvents=0;fillColor=none;points=[[0,0.5],[1,0.5]];portConstraint=eastwest;top=0;left=0;right=0;bottom=0;" vertex="1" parent="luMNdFq9stzjh2Ka0eHw-7">
          <mxGeometry y="180" width="240" height="30" as="geometry" />
        </mxCell>
        <mxCell id="QqjxY-3kE29Jugi3b9Gs-3" value="" style="shape=partialRectangle;overflow=hidden;connectable=0;fillColor=none;top=0;left=0;bottom=0;right=0;" vertex="1" parent="QqjxY-3kE29Jugi3b9Gs-2">
          <mxGeometry width="30" height="30" as="geometry" />
        </mxCell>
        <mxCell id="QqjxY-3kE29Jugi3b9Gs-4" value="created_at" style="shape=partialRectangle;overflow=hidden;connectable=0;fillColor=none;top=0;left=0;bottom=0;right=0;align=left;spacingLeft=6;" vertex="1" parent="QqjxY-3kE29Jugi3b9Gs-2">
          <mxGeometry x="30" width="210" height="30" as="geometry" />
        </mxCell>
        <mxCell id="QqjxY-3kE29Jugi3b9Gs-5" value="" style="shape=partialRectangle;collapsible=0;dropTarget=0;pointerEvents=0;fillColor=none;points=[[0,0.5],[1,0.5]];portConstraint=eastwest;top=0;left=0;right=0;bottom=0;" vertex="1" parent="luMNdFq9stzjh2Ka0eHw-7">
          <mxGeometry y="210" width="240" height="30" as="geometry" />
        </mxCell>
        <mxCell id="QqjxY-3kE29Jugi3b9Gs-6" value="" style="shape=partialRectangle;overflow=hidden;connectable=0;fillColor=none;top=0;left=0;bottom=0;right=0;" vertex="1" parent="QqjxY-3kE29Jugi3b9Gs-5">
          <mxGeometry width="30" height="30" as="geometry" />
        </mxCell>
        <mxCell id="QqjxY-3kE29Jugi3b9Gs-7" value="update_at" style="shape=partialRectangle;overflow=hidden;connectable=0;fillColor=none;top=0;left=0;bottom=0;right=0;align=left;spacingLeft=6;" vertex="1" parent="QqjxY-3kE29Jugi3b9Gs-5">
          <mxGeometry x="30" width="210" height="30" as="geometry" />
        </mxCell>
        <mxCell id="QqjxY-3kE29Jugi3b9Gs-8" value="markets" style="shape=table;startSize=30;container=1;collapsible=1;childLayout=tableLayout;fixedRows=1;rowLines=0;fontStyle=1;align=center;resizeLast=1;" vertex="1" parent="1">
          <mxGeometry x="40" y="80" width="240" height="210" as="geometry" />
        </mxCell>
        <mxCell id="QqjxY-3kE29Jugi3b9Gs-9" value="" style="shape=partialRectangle;collapsible=0;dropTarget=0;pointerEvents=0;fillColor=none;top=0;left=0;bottom=1;right=0;points=[[0,0.5],[1,0.5]];portConstraint=eastwest;" vertex="1" parent="QqjxY-3kE29Jugi3b9Gs-8">
          <mxGeometry y="30" width="240" height="30" as="geometry" />
        </mxCell>
        <mxCell id="QqjxY-3kE29Jugi3b9Gs-10" value="PK" style="shape=partialRectangle;connectable=0;fillColor=none;top=0;left=0;bottom=0;right=0;fontStyle=1;overflow=hidden;" vertex="1" parent="QqjxY-3kE29Jugi3b9Gs-9">
          <mxGeometry width="30" height="30" as="geometry" />
        </mxCell>
        <mxCell id="QqjxY-3kE29Jugi3b9Gs-11" value="id NOT NULL" style="shape=partialRectangle;connectable=0;fillColor=none;top=0;left=0;bottom=0;right=0;align=left;spacingLeft=6;fontStyle=5;overflow=hidden;" vertex="1" parent="QqjxY-3kE29Jugi3b9Gs-9">
          <mxGeometry x="30" width="210" height="30" as="geometry" />
        </mxCell>
        <mxCell id="QqjxY-3kE29Jugi3b9Gs-12" value="" style="shape=partialRectangle;collapsible=0;dropTarget=0;pointerEvents=0;fillColor=none;top=0;left=0;bottom=0;right=0;points=[[0,0.5],[1,0.5]];portConstraint=eastwest;" vertex="1" parent="QqjxY-3kE29Jugi3b9Gs-8">
          <mxGeometry y="60" width="240" height="30" as="geometry" />
        </mxCell>
        <mxCell id="QqjxY-3kE29Jugi3b9Gs-13" value="" style="shape=partialRectangle;connectable=0;fillColor=none;top=0;left=0;bottom=0;right=0;editable=1;overflow=hidden;" vertex="1" parent="QqjxY-3kE29Jugi3b9Gs-12">
          <mxGeometry width="30" height="30" as="geometry" />
        </mxCell>
        <mxCell id="QqjxY-3kE29Jugi3b9Gs-14" value="code" style="shape=partialRectangle;connectable=0;fillColor=none;top=0;left=0;bottom=0;right=0;align=left;spacingLeft=6;overflow=hidden;" vertex="1" parent="QqjxY-3kE29Jugi3b9Gs-12">
          <mxGeometry x="30" width="210" height="30" as="geometry" />
        </mxCell>
        <mxCell id="QqjxY-3kE29Jugi3b9Gs-15" value="" style="shape=partialRectangle;collapsible=0;dropTarget=0;pointerEvents=0;fillColor=none;top=0;left=0;bottom=0;right=0;points=[[0,0.5],[1,0.5]];portConstraint=eastwest;" vertex="1" parent="QqjxY-3kE29Jugi3b9Gs-8">
          <mxGeometry y="90" width="240" height="30" as="geometry" />
        </mxCell>
        <mxCell id="QqjxY-3kE29Jugi3b9Gs-16" value="" style="shape=partialRectangle;connectable=0;fillColor=none;top=0;left=0;bottom=0;right=0;editable=1;overflow=hidden;" vertex="1" parent="QqjxY-3kE29Jugi3b9Gs-15">
          <mxGeometry width="30" height="30" as="geometry" />
        </mxCell>
        <mxCell id="QqjxY-3kE29Jugi3b9Gs-17" value="name" style="shape=partialRectangle;connectable=0;fillColor=none;top=0;left=0;bottom=0;right=0;align=left;spacingLeft=6;overflow=hidden;" vertex="1" parent="QqjxY-3kE29Jugi3b9Gs-15">
          <mxGeometry x="30" width="210" height="30" as="geometry" />
        </mxCell>
        <mxCell id="QqjxY-3kE29Jugi3b9Gs-18" value="" style="shape=partialRectangle;collapsible=0;dropTarget=0;pointerEvents=0;fillColor=none;top=0;left=0;bottom=0;right=0;points=[[0,0.5],[1,0.5]];portConstraint=eastwest;" vertex="1" parent="QqjxY-3kE29Jugi3b9Gs-8">
          <mxGeometry y="120" width="240" height="30" as="geometry" />
        </mxCell>
        <mxCell id="QqjxY-3kE29Jugi3b9Gs-19" value="" style="shape=partialRectangle;connectable=0;fillColor=none;top=0;left=0;bottom=0;right=0;editable=1;overflow=hidden;" vertex="1" parent="QqjxY-3kE29Jugi3b9Gs-18">
          <mxGeometry width="30" height="30" as="geometry" />
        </mxCell>
        <mxCell id="QqjxY-3kE29Jugi3b9Gs-20" value="created_at" style="shape=partialRectangle;connectable=0;fillColor=none;top=0;left=0;bottom=0;right=0;align=left;spacingLeft=6;overflow=hidden;" vertex="1" parent="QqjxY-3kE29Jugi3b9Gs-18">
          <mxGeometry x="30" width="210" height="30" as="geometry" />
        </mxCell>
        <mxCell id="QqjxY-3kE29Jugi3b9Gs-21" value="" style="shape=partialRectangle;collapsible=0;dropTarget=0;pointerEvents=0;fillColor=none;top=0;left=0;bottom=0;right=0;points=[[0,0.5],[1,0.5]];portConstraint=eastwest;" vertex="1" parent="QqjxY-3kE29Jugi3b9Gs-8">
          <mxGeometry y="150" width="240" height="30" as="geometry" />
        </mxCell>
        <mxCell id="QqjxY-3kE29Jugi3b9Gs-22" value="" style="shape=partialRectangle;connectable=0;fillColor=none;top=0;left=0;bottom=0;right=0;editable=1;overflow=hidden;" vertex="1" parent="QqjxY-3kE29Jugi3b9Gs-21">
          <mxGeometry width="30" height="30" as="geometry" />
        </mxCell>
        <mxCell id="QqjxY-3kE29Jugi3b9Gs-23" value="update_at" style="shape=partialRectangle;connectable=0;fillColor=none;top=0;left=0;bottom=0;right=0;align=left;spacingLeft=6;overflow=hidden;" vertex="1" parent="QqjxY-3kE29Jugi3b9Gs-21">
          <mxGeometry x="30" width="210" height="30" as="geometry" />
        </mxCell>
        <mxCell id="QqjxY-3kE29Jugi3b9Gs-24" value="industries" style="shape=table;startSize=30;container=1;collapsible=1;childLayout=tableLayout;fixedRows=1;rowLines=0;fontStyle=1;align=center;resizeLast=1;" vertex="1" parent="1">
          <mxGeometry x="40" y="360" width="240" height="210" as="geometry" />
        </mxCell>
        <mxCell id="QqjxY-3kE29Jugi3b9Gs-25" value="" style="shape=partialRectangle;collapsible=0;dropTarget=0;pointerEvents=0;fillColor=none;top=0;left=0;bottom=1;right=0;points=[[0,0.5],[1,0.5]];portConstraint=eastwest;" vertex="1" parent="QqjxY-3kE29Jugi3b9Gs-24">
          <mxGeometry y="30" width="240" height="30" as="geometry" />
        </mxCell>
        <mxCell id="QqjxY-3kE29Jugi3b9Gs-26" value="PK" style="shape=partialRectangle;connectable=0;fillColor=none;top=0;left=0;bottom=0;right=0;fontStyle=1;overflow=hidden;" vertex="1" parent="QqjxY-3kE29Jugi3b9Gs-25">
          <mxGeometry width="30" height="30" as="geometry" />
        </mxCell>
        <mxCell id="QqjxY-3kE29Jugi3b9Gs-27" value="id NOT NULL" style="shape=partialRectangle;connectable=0;fillColor=none;top=0;left=0;bottom=0;right=0;align=left;spacingLeft=6;fontStyle=5;overflow=hidden;" vertex="1" parent="QqjxY-3kE29Jugi3b9Gs-25">
          <mxGeometry x="30" width="210" height="30" as="geometry" />
        </mxCell>
        <mxCell id="QqjxY-3kE29Jugi3b9Gs-28" value="" style="shape=partialRectangle;collapsible=0;dropTarget=0;pointerEvents=0;fillColor=none;top=0;left=0;bottom=0;right=0;points=[[0,0.5],[1,0.5]];portConstraint=eastwest;" vertex="1" parent="QqjxY-3kE29Jugi3b9Gs-24">
          <mxGeometry y="60" width="240" height="30" as="geometry" />
        </mxCell>
        <mxCell id="QqjxY-3kE29Jugi3b9Gs-29" value="" style="shape=partialRectangle;connectable=0;fillColor=none;top=0;left=0;bottom=0;right=0;editable=1;overflow=hidden;" vertex="1" parent="QqjxY-3kE29Jugi3b9Gs-28">
          <mxGeometry width="30" height="30" as="geometry" />
        </mxCell>
        <mxCell id="QqjxY-3kE29Jugi3b9Gs-30" value="code" style="shape=partialRectangle;connectable=0;fillColor=none;top=0;left=0;bottom=0;right=0;align=left;spacingLeft=6;overflow=hidden;" vertex="1" parent="QqjxY-3kE29Jugi3b9Gs-28">
          <mxGeometry x="30" width="210" height="30" as="geometry" />
        </mxCell>
        <mxCell id="QqjxY-3kE29Jugi3b9Gs-31" value="" style="shape=partialRectangle;collapsible=0;dropTarget=0;pointerEvents=0;fillColor=none;top=0;left=0;bottom=0;right=0;points=[[0,0.5],[1,0.5]];portConstraint=eastwest;" vertex="1" parent="QqjxY-3kE29Jugi3b9Gs-24">
          <mxGeometry y="90" width="240" height="30" as="geometry" />
        </mxCell>
        <mxCell id="QqjxY-3kE29Jugi3b9Gs-32" value="" style="shape=partialRectangle;connectable=0;fillColor=none;top=0;left=0;bottom=0;right=0;editable=1;overflow=hidden;" vertex="1" parent="QqjxY-3kE29Jugi3b9Gs-31">
          <mxGeometry width="30" height="30" as="geometry" />
        </mxCell>
        <mxCell id="QqjxY-3kE29Jugi3b9Gs-33" value="name" style="shape=partialRectangle;connectable=0;fillColor=none;top=0;left=0;bottom=0;right=0;align=left;spacingLeft=6;overflow=hidden;" vertex="1" parent="QqjxY-3kE29Jugi3b9Gs-31">
          <mxGeometry x="30" width="210" height="30" as="geometry" />
        </mxCell>
        <mxCell id="QqjxY-3kE29Jugi3b9Gs-34" value="" style="shape=partialRectangle;collapsible=0;dropTarget=0;pointerEvents=0;fillColor=none;top=0;left=0;bottom=0;right=0;points=[[0,0.5],[1,0.5]];portConstraint=eastwest;" vertex="1" parent="QqjxY-3kE29Jugi3b9Gs-24">
          <mxGeometry y="120" width="240" height="30" as="geometry" />
        </mxCell>
        <mxCell id="QqjxY-3kE29Jugi3b9Gs-35" value="" style="shape=partialRectangle;connectable=0;fillColor=none;top=0;left=0;bottom=0;right=0;editable=1;overflow=hidden;" vertex="1" parent="QqjxY-3kE29Jugi3b9Gs-34">
          <mxGeometry width="30" height="30" as="geometry" />
        </mxCell>
        <mxCell id="QqjxY-3kE29Jugi3b9Gs-36" value="created_at" style="shape=partialRectangle;connectable=0;fillColor=none;top=0;left=0;bottom=0;right=0;align=left;spacingLeft=6;overflow=hidden;" vertex="1" parent="QqjxY-3kE29Jugi3b9Gs-34">
          <mxGeometry x="30" width="210" height="30" as="geometry" />
        </mxCell>
        <mxCell id="QqjxY-3kE29Jugi3b9Gs-37" value="" style="shape=partialRectangle;collapsible=0;dropTarget=0;pointerEvents=0;fillColor=none;top=0;left=0;bottom=0;right=0;points=[[0,0.5],[1,0.5]];portConstraint=eastwest;" vertex="1" parent="QqjxY-3kE29Jugi3b9Gs-24">
          <mxGeometry y="150" width="240" height="30" as="geometry" />
        </mxCell>
        <mxCell id="QqjxY-3kE29Jugi3b9Gs-38" value="" style="shape=partialRectangle;connectable=0;fillColor=none;top=0;left=0;bottom=0;right=0;editable=1;overflow=hidden;" vertex="1" parent="QqjxY-3kE29Jugi3b9Gs-37">
          <mxGeometry width="30" height="30" as="geometry" />
        </mxCell>
        <mxCell id="QqjxY-3kE29Jugi3b9Gs-39" value="update_at" style="shape=partialRectangle;connectable=0;fillColor=none;top=0;left=0;bottom=0;right=0;align=left;spacingLeft=6;overflow=hidden;" vertex="1" parent="QqjxY-3kE29Jugi3b9Gs-37">
          <mxGeometry x="30" width="210" height="30" as="geometry" />
        </mxCell>
        <mxCell id="QqjxY-3kE29Jugi3b9Gs-40" value="daily_prices" style="shape=table;startSize=30;container=1;collapsible=1;childLayout=tableLayout;fixedRows=1;rowLines=0;fontStyle=1;align=center;resizeLast=1;" vertex="1" parent="1">
          <mxGeometry x="360" y="480" width="240" height="390" as="geometry" />
        </mxCell>
        <mxCell id="QqjxY-3kE29Jugi3b9Gs-41" value="" style="shape=partialRectangle;collapsible=0;dropTarget=0;pointerEvents=0;fillColor=none;top=0;left=0;bottom=1;right=0;points=[[0,0.5],[1,0.5]];portConstraint=eastwest;" vertex="1" parent="QqjxY-3kE29Jugi3b9Gs-40">
          <mxGeometry y="30" width="240" height="30" as="geometry" />
        </mxCell>
        <mxCell id="QqjxY-3kE29Jugi3b9Gs-42" value="PK" style="shape=partialRectangle;connectable=0;fillColor=none;top=0;left=0;bottom=0;right=0;fontStyle=1;overflow=hidden;" vertex="1" parent="QqjxY-3kE29Jugi3b9Gs-41">
          <mxGeometry width="30" height="30" as="geometry" />
        </mxCell>
        <mxCell id="QqjxY-3kE29Jugi3b9Gs-43" value="id NOT NULL" style="shape=partialRectangle;connectable=0;fillColor=none;top=0;left=0;bottom=0;right=0;align=left;spacingLeft=6;fontStyle=5;overflow=hidden;" vertex="1" parent="QqjxY-3kE29Jugi3b9Gs-41">
          <mxGeometry x="30" width="210" height="30" as="geometry" />
        </mxCell>
        <mxCell id="QqjxY-3kE29Jugi3b9Gs-44" value="" style="shape=partialRectangle;collapsible=0;dropTarget=0;pointerEvents=0;fillColor=none;top=0;left=0;bottom=0;right=0;points=[[0,0.5],[1,0.5]];portConstraint=eastwest;" vertex="1" parent="QqjxY-3kE29Jugi3b9Gs-40">
          <mxGeometry y="60" width="240" height="30" as="geometry" />
        </mxCell>
        <mxCell id="QqjxY-3kE29Jugi3b9Gs-45" value="FK" style="shape=partialRectangle;connectable=0;fillColor=none;top=0;left=0;bottom=0;right=0;editable=1;overflow=hidden;" vertex="1" parent="QqjxY-3kE29Jugi3b9Gs-44">
          <mxGeometry width="30" height="30" as="geometry" />
        </mxCell>
        <mxCell id="QqjxY-3kE29Jugi3b9Gs-46" value="stock_id" style="shape=partialRectangle;connectable=0;fillColor=none;top=0;left=0;bottom=0;right=0;align=left;spacingLeft=6;overflow=hidden;" vertex="1" parent="QqjxY-3kE29Jugi3b9Gs-44">
          <mxGeometry x="30" width="210" height="30" as="geometry" />
        </mxCell>
        <mxCell id="QqjxY-3kE29Jugi3b9Gs-47" value="" style="shape=partialRectangle;collapsible=0;dropTarget=0;pointerEvents=0;fillColor=none;top=0;left=0;bottom=0;right=0;points=[[0,0.5],[1,0.5]];portConstraint=eastwest;" vertex="1" parent="QqjxY-3kE29Jugi3b9Gs-40">
          <mxGeometry y="90" width="240" height="30" as="geometry" />
        </mxCell>
        <mxCell id="QqjxY-3kE29Jugi3b9Gs-48" value="" style="shape=partialRectangle;connectable=0;fillColor=none;top=0;left=0;bottom=0;right=0;editable=1;overflow=hidden;" vertex="1" parent="QqjxY-3kE29Jugi3b9Gs-47">
          <mxGeometry width="30" height="30" as="geometry" />
        </mxCell>
        <mxCell id="QqjxY-3kE29Jugi3b9Gs-49" value="date" style="shape=partialRectangle;connectable=0;fillColor=none;top=0;left=0;bottom=0;right=0;align=left;spacingLeft=6;overflow=hidden;" vertex="1" parent="QqjxY-3kE29Jugi3b9Gs-47">
          <mxGeometry x="30" width="210" height="30" as="geometry" />
        </mxCell>
        <mxCell id="QqjxY-3kE29Jugi3b9Gs-59" value="" style="shape=partialRectangle;collapsible=0;dropTarget=0;pointerEvents=0;fillColor=none;top=0;left=0;bottom=0;right=0;points=[[0,0.5],[1,0.5]];portConstraint=eastwest;" vertex="1" parent="QqjxY-3kE29Jugi3b9Gs-40">
          <mxGeometry y="120" width="240" height="30" as="geometry" />
        </mxCell>
        <mxCell id="QqjxY-3kE29Jugi3b9Gs-60" value="" style="shape=partialRectangle;connectable=0;fillColor=none;top=0;left=0;bottom=0;right=0;editable=1;overflow=hidden;" vertex="1" parent="QqjxY-3kE29Jugi3b9Gs-59">
          <mxGeometry width="30" height="30" as="geometry" />
        </mxCell>
        <mxCell id="QqjxY-3kE29Jugi3b9Gs-61" value="price" style="shape=partialRectangle;connectable=0;fillColor=none;top=0;left=0;bottom=0;right=0;align=left;spacingLeft=6;overflow=hidden;" vertex="1" parent="QqjxY-3kE29Jugi3b9Gs-59">
          <mxGeometry x="30" width="210" height="30" as="geometry" />
        </mxCell>
        <mxCell id="QqjxY-3kE29Jugi3b9Gs-62" value="" style="shape=partialRectangle;collapsible=0;dropTarget=0;pointerEvents=0;fillColor=none;top=0;left=0;bottom=0;right=0;points=[[0,0.5],[1,0.5]];portConstraint=eastwest;" vertex="1" parent="QqjxY-3kE29Jugi3b9Gs-40">
          <mxGeometry y="150" width="240" height="30" as="geometry" />
        </mxCell>
        <mxCell id="QqjxY-3kE29Jugi3b9Gs-63" value="" style="shape=partialRectangle;connectable=0;fillColor=none;top=0;left=0;bottom=0;right=0;editable=1;overflow=hidden;" vertex="1" parent="QqjxY-3kE29Jugi3b9Gs-62">
          <mxGeometry width="30" height="30" as="geometry" />
        </mxCell>
        <mxCell id="QqjxY-3kE29Jugi3b9Gs-64" value="pre_end_price" style="shape=partialRectangle;connectable=0;fillColor=none;top=0;left=0;bottom=0;right=0;align=left;spacingLeft=6;overflow=hidden;" vertex="1" parent="QqjxY-3kE29Jugi3b9Gs-62">
          <mxGeometry x="30" width="210" height="30" as="geometry" />
        </mxCell>
        <mxCell id="QqjxY-3kE29Jugi3b9Gs-65" value="" style="shape=partialRectangle;collapsible=0;dropTarget=0;pointerEvents=0;fillColor=none;top=0;left=0;bottom=0;right=0;points=[[0,0.5],[1,0.5]];portConstraint=eastwest;" vertex="1" parent="QqjxY-3kE29Jugi3b9Gs-40">
          <mxGeometry y="180" width="240" height="30" as="geometry" />
        </mxCell>
        <mxCell id="QqjxY-3kE29Jugi3b9Gs-66" value="" style="shape=partialRectangle;connectable=0;fillColor=none;top=0;left=0;bottom=0;right=0;editable=1;overflow=hidden;" vertex="1" parent="QqjxY-3kE29Jugi3b9Gs-65">
          <mxGeometry width="30" height="30" as="geometry" />
        </mxCell>
        <mxCell id="QqjxY-3kE29Jugi3b9Gs-67" value="start_price" style="shape=partialRectangle;connectable=0;fillColor=none;top=0;left=0;bottom=0;right=0;align=left;spacingLeft=6;overflow=hidden;" vertex="1" parent="QqjxY-3kE29Jugi3b9Gs-65">
          <mxGeometry x="30" width="210" height="30" as="geometry" />
        </mxCell>
        <mxCell id="QqjxY-3kE29Jugi3b9Gs-68" value="" style="shape=partialRectangle;collapsible=0;dropTarget=0;pointerEvents=0;fillColor=none;top=0;left=0;bottom=0;right=0;points=[[0,0.5],[1,0.5]];portConstraint=eastwest;" vertex="1" parent="QqjxY-3kE29Jugi3b9Gs-40">
          <mxGeometry y="210" width="240" height="30" as="geometry" />
        </mxCell>
        <mxCell id="QqjxY-3kE29Jugi3b9Gs-69" value="" style="shape=partialRectangle;connectable=0;fillColor=none;top=0;left=0;bottom=0;right=0;editable=1;overflow=hidden;" vertex="1" parent="QqjxY-3kE29Jugi3b9Gs-68">
          <mxGeometry width="30" height="30" as="geometry" />
        </mxCell>
        <mxCell id="QqjxY-3kE29Jugi3b9Gs-70" value="end_price" style="shape=partialRectangle;connectable=0;fillColor=none;top=0;left=0;bottom=0;right=0;align=left;spacingLeft=6;overflow=hidden;" vertex="1" parent="QqjxY-3kE29Jugi3b9Gs-68">
          <mxGeometry x="30" width="210" height="30" as="geometry" />
        </mxCell>
        <mxCell id="QqjxY-3kE29Jugi3b9Gs-71" value="" style="shape=partialRectangle;collapsible=0;dropTarget=0;pointerEvents=0;fillColor=none;top=0;left=0;bottom=0;right=0;points=[[0,0.5],[1,0.5]];portConstraint=eastwest;" vertex="1" parent="QqjxY-3kE29Jugi3b9Gs-40">
          <mxGeometry y="240" width="240" height="30" as="geometry" />
        </mxCell>
        <mxCell id="QqjxY-3kE29Jugi3b9Gs-72" value="" style="shape=partialRectangle;connectable=0;fillColor=none;top=0;left=0;bottom=0;right=0;editable=1;overflow=hidden;" vertex="1" parent="QqjxY-3kE29Jugi3b9Gs-71">
          <mxGeometry width="30" height="30" as="geometry" />
        </mxCell>
        <mxCell id="QqjxY-3kE29Jugi3b9Gs-73" value="highest_price" style="shape=partialRectangle;connectable=0;fillColor=none;top=0;left=0;bottom=0;right=0;align=left;spacingLeft=6;overflow=hidden;" vertex="1" parent="QqjxY-3kE29Jugi3b9Gs-71">
          <mxGeometry x="30" width="210" height="30" as="geometry" />
        </mxCell>
        <mxCell id="QqjxY-3kE29Jugi3b9Gs-74" value="" style="shape=partialRectangle;collapsible=0;dropTarget=0;pointerEvents=0;fillColor=none;top=0;left=0;bottom=0;right=0;points=[[0,0.5],[1,0.5]];portConstraint=eastwest;" vertex="1" parent="QqjxY-3kE29Jugi3b9Gs-40">
          <mxGeometry y="270" width="240" height="30" as="geometry" />
        </mxCell>
        <mxCell id="QqjxY-3kE29Jugi3b9Gs-75" value="" style="shape=partialRectangle;connectable=0;fillColor=none;top=0;left=0;bottom=0;right=0;editable=1;overflow=hidden;" vertex="1" parent="QqjxY-3kE29Jugi3b9Gs-74">
          <mxGeometry width="30" height="30" as="geometry" />
        </mxCell>
        <mxCell id="QqjxY-3kE29Jugi3b9Gs-76" value="lowest_price" style="shape=partialRectangle;connectable=0;fillColor=none;top=0;left=0;bottom=0;right=0;align=left;spacingLeft=6;overflow=hidden;" vertex="1" parent="QqjxY-3kE29Jugi3b9Gs-74">
          <mxGeometry x="30" width="210" height="30" as="geometry" />
        </mxCell>
        <mxCell id="QqjxY-3kE29Jugi3b9Gs-50" value="" style="shape=partialRectangle;collapsible=0;dropTarget=0;pointerEvents=0;fillColor=none;top=0;left=0;bottom=0;right=0;points=[[0,0.5],[1,0.5]];portConstraint=eastwest;" vertex="1" parent="QqjxY-3kE29Jugi3b9Gs-40">
          <mxGeometry y="300" width="240" height="30" as="geometry" />
        </mxCell>
        <mxCell id="QqjxY-3kE29Jugi3b9Gs-51" value="" style="shape=partialRectangle;connectable=0;fillColor=none;top=0;left=0;bottom=0;right=0;editable=1;overflow=hidden;" vertex="1" parent="QqjxY-3kE29Jugi3b9Gs-50">
          <mxGeometry width="30" height="30" as="geometry" />
        </mxCell>
        <mxCell id="QqjxY-3kE29Jugi3b9Gs-52" value="created_at" style="shape=partialRectangle;connectable=0;fillColor=none;top=0;left=0;bottom=0;right=0;align=left;spacingLeft=6;overflow=hidden;" vertex="1" parent="QqjxY-3kE29Jugi3b9Gs-50">
          <mxGeometry x="30" width="210" height="30" as="geometry" />
        </mxCell>
        <mxCell id="QqjxY-3kE29Jugi3b9Gs-53" value="" style="shape=partialRectangle;collapsible=0;dropTarget=0;pointerEvents=0;fillColor=none;top=0;left=0;bottom=0;right=0;points=[[0,0.5],[1,0.5]];portConstraint=eastwest;" vertex="1" parent="QqjxY-3kE29Jugi3b9Gs-40">
          <mxGeometry y="330" width="240" height="30" as="geometry" />
        </mxCell>
        <mxCell id="QqjxY-3kE29Jugi3b9Gs-54" value="" style="shape=partialRectangle;connectable=0;fillColor=none;top=0;left=0;bottom=0;right=0;editable=1;overflow=hidden;" vertex="1" parent="QqjxY-3kE29Jugi3b9Gs-53">
          <mxGeometry width="30" height="30" as="geometry" />
        </mxCell>
        <mxCell id="QqjxY-3kE29Jugi3b9Gs-55" value="update_at" style="shape=partialRectangle;connectable=0;fillColor=none;top=0;left=0;bottom=0;right=0;align=left;spacingLeft=6;overflow=hidden;" vertex="1" parent="QqjxY-3kE29Jugi3b9Gs-53">
          <mxGeometry x="30" width="210" height="30" as="geometry" />
        </mxCell>
        <mxCell id="QqjxY-3kE29Jugi3b9Gs-77" value="minutly_prices" style="shape=table;startSize=30;container=1;collapsible=1;childLayout=tableLayout;fixedRows=1;rowLines=0;fontStyle=1;align=center;resizeLast=1;" vertex="1" parent="1">
          <mxGeometry x="780" y="480" width="240" height="240" as="geometry" />
        </mxCell>
        <mxCell id="QqjxY-3kE29Jugi3b9Gs-78" value="" style="shape=partialRectangle;collapsible=0;dropTarget=0;pointerEvents=0;fillColor=none;top=0;left=0;bottom=1;right=0;points=[[0,0.5],[1,0.5]];portConstraint=eastwest;" vertex="1" parent="QqjxY-3kE29Jugi3b9Gs-77">
          <mxGeometry y="30" width="240" height="30" as="geometry" />
        </mxCell>
        <mxCell id="QqjxY-3kE29Jugi3b9Gs-79" value="PK" style="shape=partialRectangle;connectable=0;fillColor=none;top=0;left=0;bottom=0;right=0;fontStyle=1;overflow=hidden;" vertex="1" parent="QqjxY-3kE29Jugi3b9Gs-78">
          <mxGeometry width="30" height="30" as="geometry" />
        </mxCell>
        <mxCell id="QqjxY-3kE29Jugi3b9Gs-80" value="id NOT NULL" style="shape=partialRectangle;connectable=0;fillColor=none;top=0;left=0;bottom=0;right=0;align=left;spacingLeft=6;fontStyle=5;overflow=hidden;" vertex="1" parent="QqjxY-3kE29Jugi3b9Gs-78">
          <mxGeometry x="30" width="210" height="30" as="geometry" />
        </mxCell>
        <mxCell id="QqjxY-3kE29Jugi3b9Gs-81" value="" style="shape=partialRectangle;collapsible=0;dropTarget=0;pointerEvents=0;fillColor=none;top=0;left=0;bottom=0;right=0;points=[[0,0.5],[1,0.5]];portConstraint=eastwest;" vertex="1" parent="QqjxY-3kE29Jugi3b9Gs-77">
          <mxGeometry y="60" width="240" height="30" as="geometry" />
        </mxCell>
        <mxCell id="QqjxY-3kE29Jugi3b9Gs-82" value="FK" style="shape=partialRectangle;connectable=0;fillColor=none;top=0;left=0;bottom=0;right=0;editable=1;overflow=hidden;" vertex="1" parent="QqjxY-3kE29Jugi3b9Gs-81">
          <mxGeometry width="30" height="30" as="geometry" />
        </mxCell>
        <mxCell id="QqjxY-3kE29Jugi3b9Gs-83" value="stock_id" style="shape=partialRectangle;connectable=0;fillColor=none;top=0;left=0;bottom=0;right=0;align=left;spacingLeft=6;overflow=hidden;" vertex="1" parent="QqjxY-3kE29Jugi3b9Gs-81">
          <mxGeometry x="30" width="210" height="30" as="geometry" />
        </mxCell>
        <mxCell id="QqjxY-3kE29Jugi3b9Gs-84" value="" style="shape=partialRectangle;collapsible=0;dropTarget=0;pointerEvents=0;fillColor=none;top=0;left=0;bottom=0;right=0;points=[[0,0.5],[1,0.5]];portConstraint=eastwest;" vertex="1" parent="QqjxY-3kE29Jugi3b9Gs-77">
          <mxGeometry y="90" width="240" height="30" as="geometry" />
        </mxCell>
        <mxCell id="QqjxY-3kE29Jugi3b9Gs-85" value="" style="shape=partialRectangle;connectable=0;fillColor=none;top=0;left=0;bottom=0;right=0;editable=1;overflow=hidden;" vertex="1" parent="QqjxY-3kE29Jugi3b9Gs-84">
          <mxGeometry width="30" height="30" as="geometry" />
        </mxCell>
        <mxCell id="QqjxY-3kE29Jugi3b9Gs-86" value="datetime" style="shape=partialRectangle;connectable=0;fillColor=none;top=0;left=0;bottom=0;right=0;align=left;spacingLeft=6;overflow=hidden;" vertex="1" parent="QqjxY-3kE29Jugi3b9Gs-84">
          <mxGeometry x="30" width="210" height="30" as="geometry" />
        </mxCell>
        <mxCell id="QqjxY-3kE29Jugi3b9Gs-87" value="" style="shape=partialRectangle;collapsible=0;dropTarget=0;pointerEvents=0;fillColor=none;top=0;left=0;bottom=0;right=0;points=[[0,0.5],[1,0.5]];portConstraint=eastwest;" vertex="1" parent="QqjxY-3kE29Jugi3b9Gs-77">
          <mxGeometry y="120" width="240" height="30" as="geometry" />
        </mxCell>
        <mxCell id="QqjxY-3kE29Jugi3b9Gs-88" value="" style="shape=partialRectangle;connectable=0;fillColor=none;top=0;left=0;bottom=0;right=0;editable=1;overflow=hidden;" vertex="1" parent="QqjxY-3kE29Jugi3b9Gs-87">
          <mxGeometry width="30" height="30" as="geometry" />
        </mxCell>
        <mxCell id="QqjxY-3kE29Jugi3b9Gs-89" value="price" style="shape=partialRectangle;connectable=0;fillColor=none;top=0;left=0;bottom=0;right=0;align=left;spacingLeft=6;overflow=hidden;" vertex="1" parent="QqjxY-3kE29Jugi3b9Gs-87">
          <mxGeometry x="30" width="210" height="30" as="geometry" />
        </mxCell>
        <mxCell id="QqjxY-3kE29Jugi3b9Gs-105" value="" style="shape=partialRectangle;collapsible=0;dropTarget=0;pointerEvents=0;fillColor=none;top=0;left=0;bottom=0;right=0;points=[[0,0.5],[1,0.5]];portConstraint=eastwest;" vertex="1" parent="QqjxY-3kE29Jugi3b9Gs-77">
          <mxGeometry y="150" width="240" height="30" as="geometry" />
        </mxCell>
        <mxCell id="QqjxY-3kE29Jugi3b9Gs-106" value="" style="shape=partialRectangle;connectable=0;fillColor=none;top=0;left=0;bottom=0;right=0;editable=1;overflow=hidden;" vertex="1" parent="QqjxY-3kE29Jugi3b9Gs-105">
          <mxGeometry width="30" height="30" as="geometry" />
        </mxCell>
        <mxCell id="QqjxY-3kE29Jugi3b9Gs-107" value="created_at" style="shape=partialRectangle;connectable=0;fillColor=none;top=0;left=0;bottom=0;right=0;align=left;spacingLeft=6;overflow=hidden;" vertex="1" parent="QqjxY-3kE29Jugi3b9Gs-105">
          <mxGeometry x="30" width="210" height="30" as="geometry" />
        </mxCell>
        <mxCell id="QqjxY-3kE29Jugi3b9Gs-108" value="" style="shape=partialRectangle;collapsible=0;dropTarget=0;pointerEvents=0;fillColor=none;top=0;left=0;bottom=0;right=0;points=[[0,0.5],[1,0.5]];portConstraint=eastwest;" vertex="1" parent="QqjxY-3kE29Jugi3b9Gs-77">
          <mxGeometry y="180" width="240" height="30" as="geometry" />
        </mxCell>
        <mxCell id="QqjxY-3kE29Jugi3b9Gs-109" value="" style="shape=partialRectangle;connectable=0;fillColor=none;top=0;left=0;bottom=0;right=0;editable=1;overflow=hidden;" vertex="1" parent="QqjxY-3kE29Jugi3b9Gs-108">
          <mxGeometry width="30" height="30" as="geometry" />
        </mxCell>
        <mxCell id="QqjxY-3kE29Jugi3b9Gs-110" value="update_at" style="shape=partialRectangle;connectable=0;fillColor=none;top=0;left=0;bottom=0;right=0;align=left;spacingLeft=6;overflow=hidden;" vertex="1" parent="QqjxY-3kE29Jugi3b9Gs-108">
          <mxGeometry x="30" width="210" height="30" as="geometry" />
        </mxCell>
        <mxCell id="QqjxY-3kE29Jugi3b9Gs-111" value="daily_volumes" style="shape=table;startSize=30;container=1;collapsible=1;childLayout=tableLayout;fixedRows=1;rowLines=0;fontStyle=1;align=center;resizeLast=1;" vertex="1" parent="1">
          <mxGeometry x="640" y="760" width="240" height="240" as="geometry" />
        </mxCell>
        <mxCell id="QqjxY-3kE29Jugi3b9Gs-112" value="" style="shape=partialRectangle;collapsible=0;dropTarget=0;pointerEvents=0;fillColor=none;top=0;left=0;bottom=1;right=0;points=[[0,0.5],[1,0.5]];portConstraint=eastwest;" vertex="1" parent="QqjxY-3kE29Jugi3b9Gs-111">
          <mxGeometry y="30" width="240" height="30" as="geometry" />
        </mxCell>
        <mxCell id="QqjxY-3kE29Jugi3b9Gs-113" value="PK" style="shape=partialRectangle;connectable=0;fillColor=none;top=0;left=0;bottom=0;right=0;fontStyle=1;overflow=hidden;" vertex="1" parent="QqjxY-3kE29Jugi3b9Gs-112">
          <mxGeometry width="30" height="30" as="geometry" />
        </mxCell>
        <mxCell id="QqjxY-3kE29Jugi3b9Gs-114" value="id NOT NULL" style="shape=partialRectangle;connectable=0;fillColor=none;top=0;left=0;bottom=0;right=0;align=left;spacingLeft=6;fontStyle=5;overflow=hidden;" vertex="1" parent="QqjxY-3kE29Jugi3b9Gs-112">
          <mxGeometry x="30" width="210" height="30" as="geometry" />
        </mxCell>
        <mxCell id="QqjxY-3kE29Jugi3b9Gs-115" value="" style="shape=partialRectangle;collapsible=0;dropTarget=0;pointerEvents=0;fillColor=none;top=0;left=0;bottom=0;right=0;points=[[0,0.5],[1,0.5]];portConstraint=eastwest;" vertex="1" parent="QqjxY-3kE29Jugi3b9Gs-111">
          <mxGeometry y="60" width="240" height="30" as="geometry" />
        </mxCell>
        <mxCell id="QqjxY-3kE29Jugi3b9Gs-116" value="FK" style="shape=partialRectangle;connectable=0;fillColor=none;top=0;left=0;bottom=0;right=0;editable=1;overflow=hidden;" vertex="1" parent="QqjxY-3kE29Jugi3b9Gs-115">
          <mxGeometry width="30" height="30" as="geometry" />
        </mxCell>
        <mxCell id="QqjxY-3kE29Jugi3b9Gs-117" value="stock_id" style="shape=partialRectangle;connectable=0;fillColor=none;top=0;left=0;bottom=0;right=0;align=left;spacingLeft=6;overflow=hidden;" vertex="1" parent="QqjxY-3kE29Jugi3b9Gs-115">
          <mxGeometry x="30" width="210" height="30" as="geometry" />
        </mxCell>
        <mxCell id="QqjxY-3kE29Jugi3b9Gs-118" value="" style="shape=partialRectangle;collapsible=0;dropTarget=0;pointerEvents=0;fillColor=none;top=0;left=0;bottom=0;right=0;points=[[0,0.5],[1,0.5]];portConstraint=eastwest;" vertex="1" parent="QqjxY-3kE29Jugi3b9Gs-111">
          <mxGeometry y="90" width="240" height="30" as="geometry" />
        </mxCell>
        <mxCell id="QqjxY-3kE29Jugi3b9Gs-119" value="" style="shape=partialRectangle;connectable=0;fillColor=none;top=0;left=0;bottom=0;right=0;editable=1;overflow=hidden;" vertex="1" parent="QqjxY-3kE29Jugi3b9Gs-118">
          <mxGeometry width="30" height="30" as="geometry" />
        </mxCell>
        <mxCell id="QqjxY-3kE29Jugi3b9Gs-120" value="date" style="shape=partialRectangle;connectable=0;fillColor=none;top=0;left=0;bottom=0;right=0;align=left;spacingLeft=6;overflow=hidden;" vertex="1" parent="QqjxY-3kE29Jugi3b9Gs-118">
          <mxGeometry x="30" width="210" height="30" as="geometry" />
        </mxCell>
        <mxCell id="QqjxY-3kE29Jugi3b9Gs-121" value="" style="shape=partialRectangle;collapsible=0;dropTarget=0;pointerEvents=0;fillColor=none;top=0;left=0;bottom=0;right=0;points=[[0,0.5],[1,0.5]];portConstraint=eastwest;" vertex="1" parent="QqjxY-3kE29Jugi3b9Gs-111">
          <mxGeometry y="120" width="240" height="30" as="geometry" />
        </mxCell>
        <mxCell id="QqjxY-3kE29Jugi3b9Gs-122" value="" style="shape=partialRectangle;connectable=0;fillColor=none;top=0;left=0;bottom=0;right=0;editable=1;overflow=hidden;" vertex="1" parent="QqjxY-3kE29Jugi3b9Gs-121">
          <mxGeometry width="30" height="30" as="geometry" />
        </mxCell>
        <mxCell id="QqjxY-3kE29Jugi3b9Gs-123" value="volume" style="shape=partialRectangle;connectable=0;fillColor=none;top=0;left=0;bottom=0;right=0;align=left;spacingLeft=6;overflow=hidden;" vertex="1" parent="QqjxY-3kE29Jugi3b9Gs-121">
          <mxGeometry x="30" width="210" height="30" as="geometry" />
        </mxCell>
        <mxCell id="QqjxY-3kE29Jugi3b9Gs-124" value="" style="shape=partialRectangle;collapsible=0;dropTarget=0;pointerEvents=0;fillColor=none;top=0;left=0;bottom=0;right=0;points=[[0,0.5],[1,0.5]];portConstraint=eastwest;" vertex="1" parent="QqjxY-3kE29Jugi3b9Gs-111">
          <mxGeometry y="150" width="240" height="30" as="geometry" />
        </mxCell>
        <mxCell id="QqjxY-3kE29Jugi3b9Gs-125" value="" style="shape=partialRectangle;connectable=0;fillColor=none;top=0;left=0;bottom=0;right=0;editable=1;overflow=hidden;" vertex="1" parent="QqjxY-3kE29Jugi3b9Gs-124">
          <mxGeometry width="30" height="30" as="geometry" />
        </mxCell>
        <mxCell id="QqjxY-3kE29Jugi3b9Gs-126" value="created_at" style="shape=partialRectangle;connectable=0;fillColor=none;top=0;left=0;bottom=0;right=0;align=left;spacingLeft=6;overflow=hidden;" vertex="1" parent="QqjxY-3kE29Jugi3b9Gs-124">
          <mxGeometry x="30" width="210" height="30" as="geometry" />
        </mxCell>
        <mxCell id="QqjxY-3kE29Jugi3b9Gs-127" value="" style="shape=partialRectangle;collapsible=0;dropTarget=0;pointerEvents=0;fillColor=none;top=0;left=0;bottom=0;right=0;points=[[0,0.5],[1,0.5]];portConstraint=eastwest;" vertex="1" parent="QqjxY-3kE29Jugi3b9Gs-111">
          <mxGeometry y="180" width="240" height="30" as="geometry" />
        </mxCell>
        <mxCell id="QqjxY-3kE29Jugi3b9Gs-128" value="" style="shape=partialRectangle;connectable=0;fillColor=none;top=0;left=0;bottom=0;right=0;editable=1;overflow=hidden;" vertex="1" parent="QqjxY-3kE29Jugi3b9Gs-127">
          <mxGeometry width="30" height="30" as="geometry" />
        </mxCell>
        <mxCell id="QqjxY-3kE29Jugi3b9Gs-129" value="update_at" style="shape=partialRectangle;connectable=0;fillColor=none;top=0;left=0;bottom=0;right=0;align=left;spacingLeft=6;overflow=hidden;" vertex="1" parent="QqjxY-3kE29Jugi3b9Gs-127">
          <mxGeometry x="30" width="210" height="30" as="geometry" />
        </mxCell>
        <mxCell id="QqjxY-3kE29Jugi3b9Gs-130" style="edgeStyle=orthogonalEdgeStyle;rounded=0;orthogonalLoop=1;jettySize=auto;html=1;exitX=1;exitY=0.5;exitDx=0;exitDy=0;entryX=0;entryY=0.5;entryDx=0;entryDy=0;endArrow=ERmany;endFill=0;endSize=8;startSize=8;startArrow=ERone;startFill=0;" edge="1" parent="1" source="QqjxY-3kE29Jugi3b9Gs-15" target="luMNdFq9stzjh2Ka0eHw-14">
          <mxGeometry relative="1" as="geometry" />
        </mxCell>
        <mxCell id="QqjxY-3kE29Jugi3b9Gs-131" style="edgeStyle=orthogonalEdgeStyle;rounded=0;orthogonalLoop=1;jettySize=auto;html=1;exitX=1;exitY=0.5;exitDx=0;exitDy=0;entryX=0.004;entryY=0.22;entryDx=0;entryDy=0;entryPerimeter=0;startArrow=ERone;startFill=0;endArrow=ERmany;endFill=0;startSize=8;endSize=8;" edge="1" parent="1" source="QqjxY-3kE29Jugi3b9Gs-25" target="QqjxY-3kE29Jugi3b9Gs-56">
          <mxGeometry relative="1" as="geometry">
            <Array as="points">
              <mxPoint x="420" y="405" />
              <mxPoint x="420" y="237" />
            </Array>
          </mxGeometry>
        </mxCell>
        <mxCell id="QqjxY-3kE29Jugi3b9Gs-135" value="holidays" style="shape=table;startSize=30;container=1;collapsible=1;childLayout=tableLayout;fixedRows=1;rowLines=0;fontStyle=1;align=center;resizeLast=1;" vertex="1" parent="1">
          <mxGeometry x="40" y="680" width="240" height="210" as="geometry" />
        </mxCell>
        <mxCell id="QqjxY-3kE29Jugi3b9Gs-136" value="" style="shape=partialRectangle;collapsible=0;dropTarget=0;pointerEvents=0;fillColor=none;top=0;left=0;bottom=1;right=0;points=[[0,0.5],[1,0.5]];portConstraint=eastwest;" vertex="1" parent="QqjxY-3kE29Jugi3b9Gs-135">
          <mxGeometry y="30" width="240" height="30" as="geometry" />
        </mxCell>
        <mxCell id="QqjxY-3kE29Jugi3b9Gs-137" value="PK" style="shape=partialRectangle;connectable=0;fillColor=none;top=0;left=0;bottom=0;right=0;fontStyle=1;overflow=hidden;" vertex="1" parent="QqjxY-3kE29Jugi3b9Gs-136">
          <mxGeometry width="30" height="30" as="geometry" />
        </mxCell>
        <mxCell id="QqjxY-3kE29Jugi3b9Gs-138" value="id NOT NULL" style="shape=partialRectangle;connectable=0;fillColor=none;top=0;left=0;bottom=0;right=0;align=left;spacingLeft=6;fontStyle=5;overflow=hidden;" vertex="1" parent="QqjxY-3kE29Jugi3b9Gs-136">
          <mxGeometry x="30" width="210" height="30" as="geometry" />
        </mxCell>
        <mxCell id="QqjxY-3kE29Jugi3b9Gs-139" value="" style="shape=partialRectangle;collapsible=0;dropTarget=0;pointerEvents=0;fillColor=none;top=0;left=0;bottom=0;right=0;points=[[0,0.5],[1,0.5]];portConstraint=eastwest;" vertex="1" parent="QqjxY-3kE29Jugi3b9Gs-135">
          <mxGeometry y="60" width="240" height="30" as="geometry" />
        </mxCell>
        <mxCell id="QqjxY-3kE29Jugi3b9Gs-140" value="" style="shape=partialRectangle;connectable=0;fillColor=none;top=0;left=0;bottom=0;right=0;editable=1;overflow=hidden;" vertex="1" parent="QqjxY-3kE29Jugi3b9Gs-139">
          <mxGeometry width="30" height="30" as="geometry" />
        </mxCell>
        <mxCell id="QqjxY-3kE29Jugi3b9Gs-141" value="holiday" style="shape=partialRectangle;connectable=0;fillColor=none;top=0;left=0;bottom=0;right=0;align=left;spacingLeft=6;overflow=hidden;" vertex="1" parent="QqjxY-3kE29Jugi3b9Gs-139">
          <mxGeometry x="30" width="210" height="30" as="geometry" />
        </mxCell>
        <mxCell id="QqjxY-3kE29Jugi3b9Gs-142" value="" style="shape=partialRectangle;collapsible=0;dropTarget=0;pointerEvents=0;fillColor=none;top=0;left=0;bottom=0;right=0;points=[[0,0.5],[1,0.5]];portConstraint=eastwest;" vertex="1" parent="QqjxY-3kE29Jugi3b9Gs-135">
          <mxGeometry y="90" width="240" height="30" as="geometry" />
        </mxCell>
        <mxCell id="QqjxY-3kE29Jugi3b9Gs-143" value="" style="shape=partialRectangle;connectable=0;fillColor=none;top=0;left=0;bottom=0;right=0;editable=1;overflow=hidden;" vertex="1" parent="QqjxY-3kE29Jugi3b9Gs-142">
          <mxGeometry width="30" height="30" as="geometry" />
        </mxCell>
        <mxCell id="QqjxY-3kE29Jugi3b9Gs-144" value="name" style="shape=partialRectangle;connectable=0;fillColor=none;top=0;left=0;bottom=0;right=0;align=left;spacingLeft=6;overflow=hidden;" vertex="1" parent="QqjxY-3kE29Jugi3b9Gs-142">
          <mxGeometry x="30" width="210" height="30" as="geometry" />
        </mxCell>
        <mxCell id="QqjxY-3kE29Jugi3b9Gs-145" value="" style="shape=partialRectangle;collapsible=0;dropTarget=0;pointerEvents=0;fillColor=none;top=0;left=0;bottom=0;right=0;points=[[0,0.5],[1,0.5]];portConstraint=eastwest;" vertex="1" parent="QqjxY-3kE29Jugi3b9Gs-135">
          <mxGeometry y="120" width="240" height="30" as="geometry" />
        </mxCell>
        <mxCell id="QqjxY-3kE29Jugi3b9Gs-146" value="" style="shape=partialRectangle;connectable=0;fillColor=none;top=0;left=0;bottom=0;right=0;editable=1;overflow=hidden;" vertex="1" parent="QqjxY-3kE29Jugi3b9Gs-145">
          <mxGeometry width="30" height="30" as="geometry" />
        </mxCell>
        <mxCell id="QqjxY-3kE29Jugi3b9Gs-147" value="created_at" style="shape=partialRectangle;connectable=0;fillColor=none;top=0;left=0;bottom=0;right=0;align=left;spacingLeft=6;overflow=hidden;" vertex="1" parent="QqjxY-3kE29Jugi3b9Gs-145">
          <mxGeometry x="30" width="210" height="30" as="geometry" />
        </mxCell>
        <mxCell id="QqjxY-3kE29Jugi3b9Gs-148" value="" style="shape=partialRectangle;collapsible=0;dropTarget=0;pointerEvents=0;fillColor=none;top=0;left=0;bottom=0;right=0;points=[[0,0.5],[1,0.5]];portConstraint=eastwest;" vertex="1" parent="QqjxY-3kE29Jugi3b9Gs-135">
          <mxGeometry y="150" width="240" height="30" as="geometry" />
        </mxCell>
        <mxCell id="QqjxY-3kE29Jugi3b9Gs-149" value="" style="shape=partialRectangle;connectable=0;fillColor=none;top=0;left=0;bottom=0;right=0;editable=1;overflow=hidden;" vertex="1" parent="QqjxY-3kE29Jugi3b9Gs-148">
          <mxGeometry width="30" height="30" as="geometry" />
        </mxCell>
        <mxCell id="QqjxY-3kE29Jugi3b9Gs-150" value="update_at" style="shape=partialRectangle;connectable=0;fillColor=none;top=0;left=0;bottom=0;right=0;align=left;spacingLeft=6;overflow=hidden;" vertex="1" parent="QqjxY-3kE29Jugi3b9Gs-148">
          <mxGeometry x="30" width="210" height="30" as="geometry" />
        </mxCell>
      </root>
    </mxGraphModel>
  </diagram>
</mxfile>
